<svg width="15" height="15" viewBox="0 0 15 15" fill="none" xmlns="http://www.w3.org/2000/svg">
<path d="M7.5 0C11.6421 0 15 3.35786 15 7.5C15 11.6421 11.6421 15 7.5 15C3.35786 15 0 11.6421 0 7.5C0 3.35786 3.35786 0 7.5 0ZM4.46228 8C4.51993 9.69414 4.88637 11.168 5.43365 12.2626C5.90975 13.2146 6.47511 13.774 7.03125 13.9755V8H4.46228ZM7.96875 13.9755C8.52489 13.774 9.09025 13.2146 9.56635 12.2626C10.1136 11.168 10.4801 9.69414 10.5377 8H7.96875V13.9755ZM0.955811 8C1.13961 10.6037 2.84104 12.7552 5.18188 13.6395C4.96442 13.3504 4.76787 13.0275 4.59503 12.6819C3.97304 11.4379 3.58171 9.81539 3.52386 8H0.955811ZM11.4761 8C11.4183 9.81539 11.027 11.4379 10.405 12.6819C10.232 13.0277 10.0348 13.3503 9.8172 13.6395C12.1585 12.7554 13.8604 10.6039 14.0442 8H11.4761ZM9.8172 1.35956C10.035 1.64891 10.2319 1.97208 10.405 2.31812C11.027 3.56209 11.4183 5.18461 11.4761 7H14.0442C13.8604 4.39594 12.1586 2.24358 9.8172 1.35956ZM7.96875 7H10.5377C10.4801 5.30586 10.1136 3.83199 9.56635 2.73743C9.09017 1.78524 8.52499 1.22497 7.96875 1.02356V7ZM7.03125 1.02356C6.47501 1.22497 5.90983 1.78524 5.43365 2.73743C4.88637 3.83199 4.51993 5.30586 4.46228 7H7.03125V1.02356ZM5.18188 1.35956C2.84088 2.24378 1.13962 4.39624 0.955811 7H3.52386C3.58171 5.18461 3.97304 3.56209 4.59503 2.31812C4.76799 1.97226 4.96425 1.6488 5.18188 1.35956Z" fill="#000000"/>
</svg>
